<svg xmlns="http://www.w3.org/2000/svg" id="chart-run-ring-run-forward-foot-height" viewBox="0 0 360 150" width="100%" role="img" aria-label="run_forward — foot height relative to hips over frames 0 to 32: L foot, R foot -1.05 to -0.95 m; L−R -0.10 to 0.10 m on its own right-hand axis"><style>#chart-run-ring-run-forward-foot-height .series-left,#chart-run-ring-run-forward-foot-height .series-right,#chart-run-ring-run-forward-foot-height .series-diff,#chart-run-ring-run-forward-foot-height .root-path,#chart-run-ring-run-forward-foot-height .pathstart{fill:none;stroke-width:1.5}#chart-run-ring-run-forward-foot-height .pathend{stroke:none}#chart-run-ring-run-forward-foot-height .series-diff{opacity:.6;stroke-dasharray:4 3}#chart-run-ring-run-forward-foot-height text{font:8.5px ui-monospace,monospace}#chart-run-ring-run-forward-foot-height .series-left{stroke:var(--as-accent,#3b67d6)}#chart-run-ring-run-forward-foot-height .series-right{stroke:var(--as-warning,#946414)}#chart-run-ring-run-forward-foot-height .series-diff{stroke:var(--as-muted,#5b6382)}#chart-run-ring-run-forward-foot-height .root-path{stroke:var(--as-pass,#287a3b)}#chart-run-ring-run-forward-foot-height .pathdot{fill:var(--as-error,#cf3f5b)}#chart-run-ring-run-forward-foot-height .pathstart{stroke:var(--as-pass,#287a3b)}#chart-run-ring-run-forward-foot-height .pathend{fill:var(--as-pass,#287a3b)}#chart-run-ring-run-forward-foot-height text{fill:var(--as-muted,#5b6382)}@media (prefers-color-scheme:dark){#chart-run-ring-run-forward-foot-height .series-left{stroke:var(--as-accent,#7aa2f7)}#chart-run-ring-run-forward-foot-height .series-right{stroke:var(--as-warning,#e0af68)}#chart-run-ring-run-forward-foot-height .series-diff{stroke:var(--as-muted,#9099b2)}#chart-run-ring-run-forward-foot-height .root-path{stroke:var(--as-pass,#9ece6a)}#chart-run-ring-run-forward-foot-height .pathdot{fill:var(--as-error,#f7768e)}#chart-run-ring-run-forward-foot-height .pathstart{stroke:var(--as-pass,#9ece6a)}#chart-run-ring-run-forward-foot-height .pathend{fill:var(--as-pass,#9ece6a)}#chart-run-ring-run-forward-foot-height text{fill:var(--as-muted,#9099b2)}}</style><title>run_forward — foot height relative to hips</title><line class="series-left" x1="34.0" x2="44.0" y1="9" y2="9"/><text class="legend" x="47.0" y="12.0">L foot</text><line class="series-right" x1="84.6" x2="94.6" y1="9" y2="9"/><text class="legend" x="97.6" y="12.0">R foot</text><line class="series-diff" x1="135.2" x2="145.2" y1="9" y2="9"/><text class="legend" x="148.2" y="12.0">L−R (right axis)</text><path class="series-left" d="M34.0,76.0L43.1,64.7L52.2,53.8L61.4,43.8L70.5,35.0L79.6,27.8L88.8,22.4L97.9,19.1L107.0,18.0L116.1,19.1L125.2,22.4L134.4,27.8L143.5,35.0L152.6,43.8L161.8,53.8L170.9,64.7L180.0,76.0L189.1,87.3L198.2,98.2L207.4,108.2L216.5,117.0L225.6,124.2L234.8,129.6L243.9,132.9L253.0,134.0L262.1,132.9L271.2,129.6L280.4,124.2L289.5,117.0L298.6,108.2L307.8,98.2L316.9,87.3L326.0,76.0" fill="none"/><path class="series-right" d="M34.0,76.0L43.1,87.3L52.2,98.2L61.4,108.2L70.5,117.0L79.6,124.2L88.8,129.6L97.9,132.9L107.0,134.0L116.1,132.9L125.2,129.6L134.4,124.2L143.5,117.0L152.6,108.2L161.8,98.2L170.9,87.3L180.0,76.0L189.1,64.7L198.2,53.8L207.4,43.8L216.5,35.0L225.6,27.8L234.8,22.4L243.9,19.1L253.0,18.0L262.1,19.1L271.2,22.4L280.4,27.8L289.5,35.0L298.6,43.8L307.8,53.8L316.9,64.7L326.0,76.0" fill="none"/><path class="series-diff" d="M34.0,76.0L43.1,64.7L52.2,53.8L61.4,43.8L70.5,35.0L79.6,27.8L88.8,22.4L97.9,19.1L107.0,18.0L116.1,19.1L125.2,22.4L134.4,27.8L143.5,35.0L152.6,43.8L161.8,53.8L170.9,64.7L180.0,76.0L189.1,87.3L198.2,98.2L207.4,108.2L216.5,117.0L225.6,124.2L234.8,129.6L243.9,132.9L253.0,134.0L262.1,132.9L271.2,129.6L280.4,124.2L289.5,117.0L298.6,108.2L307.8,98.2L316.9,87.3L326.0,76.0" fill="none"/><text class="axis" x="2.0" y="21.0">-0.95 m</text><text class="axis" x="2.0" y="134.0">-1.05 m</text><text class="axis" x="358.0" y="21.0" text-anchor="end">0.10 m</text><text class="axis" x="358.0" y="134.0" text-anchor="end">-0.10 m</text><text class="axis" x="34.0" y="146.0">frame 0</text><text class="axis" x="326.0" y="146.0" text-anchor="end">frame 32</text></svg>
